<svg xmlns="http://www.w3.org/2000/svg" data-name="Layer 3" viewBox="0 0 64 64">
    <path fill="#c52c37"
          d="M41 46v-4a21 21 0 0 1 10.065 2.569l2.4-2.005-1.315-2.819A33.543 33.543 0 0 1 49 25.556a13.414 13.414 0 0 0-3.929-9.485A24.143 24.143 0 0 0 28 9a24.143 24.143 0 0 0-17.071 7.071L10 17v7l22 22z" />
    <path fill="#ed4241"
          d="m53.463 42.564-1.315-2.819A33.543 33.543 0 0 1 49 25.556a13.414 13.414 0 0 0-3.929-9.485 24.139 24.139 0 0 0-9.629-5.888A24 24 0 0 0 32.537 10a9.766 9.766 0 0 0-1.446.117c-9.236 1.388-12.919 12.795-6.6 19.677C29.371 35.118 35.4 41 41 44.589V42a21 21 0 0 1 10.065 2.569z" />
    <path fill="#c1cfe8"
          d="m41 46-2 9A46.375 46.375 0 0 1 2.174 21.632L2 21l8-4 1.005 1.919A58.306 58.306 0 0 0 41 46z" />
    <path fill="#c52c37"
          d="M42 42h-2v-2.675a37.923 37.923 0 0 0-1.948-12.009l1.9-.632A39.893 39.893 0 0 1 42 39.325z" />
    <circle cx="56" cy="48" r="6" fill="#c1cfe8" />
    <path fill="#d7e0ef"
          d="m10 17-7.793 3.9a46.383 46.383 0 0 0 29.7 28.624 5.772 5.772 0 0 0 7.364-4.256 58.3 58.3 0 0 1-28.266-26.349zM56 42a5.968 5.968 0 0 0-3.119.881 5.992 5.992 0 0 0 8.238 8.238A5.992 5.992 0 0 0 56 42z" />
</svg>
